<svg id="_x33_0" enable-background="new 0 0 62.001 62" height="512" viewBox="0 0 62.001 62" width="512" xmlns="http://www.w3.org/2000/svg"><g><g><g><path d="m20.761 20.76c-1.09 1.08-1.76 2.58-1.76 4.24 0 1.54.58 2.94 1.53 4h-4.53l-1.55 3.11c-.28.54-.84.89-1.45.89s-1.17-.35-1.45-.89l-1.55-3.11h-7c-1.1 0-2-.9-2-2v-20c0-1.1.9-2 2-2h20c.92 0 1.7.62 1.93 1.47-1.22 1.87-1.93 4.12-1.93 6.53v6.35c-.85.29-1.62.78-2.24 1.41z" fill="#f0d0b4"/></g><g><path d="m53.001 13v6l-14-4 1 4-9-5-4 5v-6c0-4.42 3.58-8 8-8h10c4.42 0 8 3.58 8 8z" fill="#b27946"/></g><g><path d="m57.001 13v6.35c-.63-.23-1.3-.35-2-.35h-2v-6c0-4.42-3.58-8-8-8h-10c-4.42 0-8 3.58-8 8v6h-2c-.7 0-1.37.12-2 .35v-6.35c0-2.41.71-4.66 1.93-6.53 2.14-3.29 5.85-5.47 10.07-5.47h10c6.63 0 12 5.37 12 12z" fill="#aab2bd"/></g><g><path d="m23.001 19.35v11.3c-.95-.33-1.8-.91-2.47-1.65-.95-1.06-1.53-2.46-1.53-4 0-1.66.67-3.16 1.76-4.24.62-.63 1.39-1.12 2.24-1.41z" fill="#fcd770"/></g><g><path d="m57.001 30.65v.01c-.63.22-1.3.34-2 .34h-2v-12h2c.7 0 1.37.12 2 .35z" fill="#ffeaa7"/></g><g><path d="m59.241 20.76c1.09 1.08 1.76 2.58 1.76 4.24 0 2.61-1.67 4.84-4 5.65v-11.3c.85.29 1.62.78 2.24 1.41z" fill="#fcd770"/></g><g><path d="m27.001 19v12h-2c-.7 0-1.37-.12-2-.34v-.01-11.3c.63-.23 1.3-.35 2-.35z" fill="#ffeaa7"/></g><g><path d="m49.001 45.24v15.76h-16v-4h4.34c1.06 0 2.08-.42 2.83-1.17l7.59-7.59c.79-.79 1.24-1.87 1.24-3z" fill="#fcd770"/></g><g><path d="m44.461 40.99v.02c-1.21.16-2.05.58-2.7 1.23l-8.76 8.76v-4c0-3.31 2.69-6 6-6h5c.16 0 .31 0 .46-.01z" fill="#fcd770"/></g><g><path d="m33.001 51 8.76-8.76c.65-.65 1.49-1.07 2.7-1.23.1-.01.2-.01.3-.01 1.17 0 2.23.48 3 1.24.76.77 1.24 1.83 1.24 3 0 1.13-.45 2.21-1.24 3l-7.59 7.59c-.75.75-1.77 1.17-2.83 1.17h-4.34-6v-4-1c0-.55.45-1 1-1z" fill="#fcd770"/></g><g><path d="m17.001 13v4h-8v-4c0-2.21 1.79-4 4-4 1.1 0 2.1.45 2.83 1.17.72.73 1.17 1.73 1.17 2.83z" fill="#ff826e"/></g><g><path d="m15.001 21v2c0 .55-.22 1.05-.59 1.41-.36.37-.86.59-1.41.59-1.1 0-2-.9-2-2v-2z" fill="#fc6e51"/></g><g><path d="m19.001 19v2h-4-4-4v-2c0-1.1.9-2 2-2h8c1.1 0 2 .9 2 2z" fill="#ff826e"/></g><g><path d="m27.001 53v4h-6v-1c0-1.66 1.34-3 3-3z" fill="#f0d0b4"/></g><g><path d="m53.001 31v1c0 4.81-3.78 8.75-8.54 8.99-.15.01-.3.01-.46.01h-5-3c-4.97 0-9-4.03-9-9v-1-12l4-5 9 5-1-4 14 4z" fill="#f0d0b4"/></g><g><path d="m8.001 57h1.6 11.4 6 6v4h-25c-.95 0-1.75-.67-1.95-1.56l-.01-.05c-.03-.12-.04-.26-.04-.39 0-.55.22-1.05.59-1.41.36-.37.86-.59 1.41-.59z" fill="#aab2bd"/></g><g><path d="m6.041 59.39-4.99-21.95c-.24-1.07.43-2.15 1.51-2.39.14-.03.29-.05.44-.05.94 0 1.74.64 1.95 1.56l4.65 20.44h-1.6c-.55 0-1.05.22-1.41.59-.37.36-.59.86-.59 1.41 0 .13.01.27.04.39z" fill="#ccd1d9"/></g></g><g><path d="m10.001 44h6v2h-6z"/><path d="m12.001 48.172h2v5.657h-2z" transform="matrix(.707 -.707 .707 .707 -32.255 24.131)"/><path d="m8.173 38h5.657v2h-5.657z" transform="matrix(.707 -.707 .707 .707 -24.355 19.202)"/><path d="m38.001 26c0-2.206-1.794-4-4-4s-4 1.794-4 4h2c0-1.103.897-2 2-2s2 .897 2 2z"/><path d="m46.001 22c-2.206 0-4 1.794-4 4h2c0-1.103.897-2 2-2s2 .897 2 2h2c0-2.206-1.794-4-4-4z"/><path d="m42.001 34h-6v2h6c2.206 0 4-1.794 4-4h-2c0 1.103-.897 2-2 2z"/><path d="m58.001 18.685v-5.685c0-7.168-5.832-13-13-13h-10c-4.037 0-7.65 1.85-10.036 4.746-.533-.464-1.221-.746-1.964-.746h-20c-1.654 0-3 1.346-3 3v20c0 1.654 1.346 3 3 3h6.382l1.276 2.552c.446.893 1.343 1.448 2.342 1.448s1.896-.555 2.342-1.447l1.276-2.553h3.492c1.263 1.235 2.988 2 4.89 2h1c0 4.928 3.586 9.025 8.284 9.842-1.4 1.281-2.284 3.116-2.284 5.158v3h-4c-1.103 0-2 .897-2 2h-2c-2.206 0-4 1.794-4 4h-9.606l-4.469-19.666c-.313-1.375-1.515-2.334-2.924-2.334-.224 0-.448.025-.667.075-.781.178-1.446.649-1.873 1.328s-.565 1.482-.387 2.263l5 22 .005-.001c.304 1.334 1.496 2.335 2.921 2.335h42v-16.757c0-1.659-.79-3.123-1.997-4.085 3.526-1.547 5.997-5.067 5.997-9.158h1c3.86 0 7-3.14 7-7 0-2.785-1.639-5.189-4-6.315zm-23-16.685h10c6.065 0 11 4.935 11 11v5.08c-.328-.047-.66-.08-1-.08h-1v-5c0-4.962-4.038-9-9-9h-10c-4.962 0-9 4.038-9 9v5h-1c-.34 0-.672.033-1 .08v-5.08c0-6.065 4.935-11 11-11zm3.471 15.006-7.724-4.291-2.747 3.434v-3.149c0-3.86 3.14-7 7-7h10c3.86 0 7 3.14 7 7v4.674l-14.39-4.111zm-23.089 10.994-1.829 3.659c-.211.421-.895.421-1.105 0l-1.83-3.659h-7.618c-.551 0-1-.449-1-1v-20c0-.551.449-1 1-1h20c.328 0 .625.163.809.418-1.142 1.933-1.809 4.179-1.809 6.582v5.685c-.749.357-1.426.839-2 1.425v-1.11c0-1.302-.839-2.402-2-2.816v-3.184c0-2.757-2.243-5-5-5-1.785 0-3.343.948-4.227 2.358l-2.066-2.065-1.414 1.414 2.761 2.761c-.019.177-.054.35-.054.532v3.184c-1.161.414-2 1.514-2 2.816v3h4v1c0 1.654 1.346 3 3 3s3-1.346 3-3v-1h1.586l.781.781c-.234.698-.367 1.443-.367 2.219 0 1.075.25 2.089.685 3zm-3.382-6h2v1c0 .551-.449 1-1 1s-1-.449-1-1zm-4-2v-1c0-.551.449-1 1-1h4.586l2 2zm9-2c.551 0 1 .449 1 1v.586l-1.586-1.586zm-1-2h-1.586l-4.174-4.174c.458-1.072 1.522-1.826 2.76-1.826 1.654 0 3 1.346 3 3zm-4.414 0h-1.586v-1.586zm8.414 9c0-1.627.793-3.061 2-3.974v7.949c-1.207-.914-2-2.348-2-3.975zm5 5c-.342 0-.677-.035-1-.101v-9.798c.323-.066.658-.101 1-.101h1v10zm14 12h1.586l-6.586 6.586v-1.586c0-2.757 2.243-5 5-5zm-15 12h2v2h-4c0-1.103.897-2 2-2zm-21.846-17.532c.143-.227.364-.384.624-.443.53-.122 1.076.222 1.197.753l4.368 19.222h-.343c-.589 0-1.136.177-1.6.472l-4.375-19.25c-.059-.26-.013-.528.129-.754zm4.846 22.532c0-.551.449-1 1-1h24v2h-24c-.551 0-1-.449-1-1zm41 1h-14v-2h3.343c1.335 0 2.591-.52 3.535-1.464l7.122-7.122zm-.95-12.464-7.586 7.586c-.558.558-1.331.878-2.121.878h-9.343v-4h4.586l1.707 1.707 1.414-1.414-1.293-1.293 8.05-8.05c.613-.612 1.427-.95 2.293-.95 1.788 0 3.243 1.455 3.243 3.243 0 .866-.337 1.68-.95 2.293zm-3.05-7.536h-8c-4.411 0-8-3.589-8-8v-12.65l3.253-4.066 10.276 5.709-1.139-4.557 11.61 3.317v12.247c0 4.411-3.589 8-8 8zm10-10v-10h1c.342 0 .677.035 1 .101v9.798c-.323.066-.658.101-1 .101zm4-1.026v-7.949c1.207.914 2 2.348 2 3.974s-.793 3.062-2 3.975z"/><path d="m54.001 54h2v2h-2z"/><path d="m54.001 50h2v2h-2z"/><path d="m54.001 46h2v2h-2z"/></g></g></svg>